<?xml version="1.0" encoding="utf-8"?>
<!-- Generator: Adobe Illustrator 23.0.1, SVG Export Plug-In . SVG Version: 6.00 Build 0)  -->
<!DOCTYPE svg PUBLIC "-//W3C//DTD SVG 1.1//EN" "http://www.w3.org/Graphics/SVG/1.1/DTD/svg11.dtd" [
	<!ENTITY ns_extend "http://ns.adobe.com/Extensibility/1.0/">
	<!ENTITY ns_ai "http://ns.adobe.com/AdobeIllustrator/10.0/">
	<!ENTITY ns_graphs "http://ns.adobe.com/Graphs/1.0/">
	<!ENTITY ns_vars "http://ns.adobe.com/Variables/1.0/">
	<!ENTITY ns_imrep "http://ns.adobe.com/ImageReplacement/1.0/">
	<!ENTITY ns_sfw "http://ns.adobe.com/SaveForWeb/1.0/">
	<!ENTITY ns_custom "http://ns.adobe.com/GenericCustomNamespace/1.0/">
	<!ENTITY ns_adobe_xpath "http://ns.adobe.com/XPath/1.0/">
]>
<svg version="1.1" id="Livello_1" xmlns:x="&ns_extend;" xmlns:i="&ns_ai;" xmlns:graph="&ns_graphs;"
	 xmlns="http://www.w3.org/2000/svg" xmlns:xlink="http://www.w3.org/1999/xlink" x="0px" y="0px" viewBox="0 0 9270.284 9270.284"
	 enable-background="new 0 0 9270.284 9270.284" xml:space="preserve">
<metadata>
	<sfw  xmlns="&ns_sfw;">
		<slices></slices>
		<sliceSourceBounds  bottomLeftOrigin="true" height="9270.284" width="9270.284" x="-4593.142" y="-4593.142">
			</sliceSourceBounds>
	</sfw>
</metadata>
<g>
	<path fill="#0F9D58" d="M7923.886,915.992c-66.217-22.072-132.434-33.108-198.649-33.108H662.163
		C297.973,882.884,0,1180.858,0,1545.047v7063.074c0,66.216,11.036,132.432,33.108,198.649L7923.886,915.992z"/>
	<path fill="#4285F4" d="M4193.7,5076.584L463.514,9237.176c66.216,22.072,132.433,33.108,198.649,33.108h7063.074
		c66.216,0,132.432-11.036,198.649-33.108L4193.7,5076.584z"/>
	<path fill="#E1E1E1" d="M4193.7,5076.584l4160.591,3730.187c22.072-66.217,33.108-121.396,33.108-198.649V1545.047
		c0-66.216-11.035-132.433-33.108-198.649L4193.7,5076.584z"/>
	<path opacity="0.5" fill="#C2C2C2" enable-background="new    " d="M4193.7,5076.584l4160.591,3730.187
		c22.072-66.217,33.108-121.396,33.108-198.649V1545.047c0-66.216-11.035-132.433-33.108-198.649L4193.7,5076.584z"/>
	<path fill="#F1F1F1" d="M8387.399,8608.121L4414.421,4635.142l-772.524,662.163l3972.979,3972.979h110.361
		C8089.427,9270.284,8387.399,8972.311,8387.399,8608.121z"/>
	<path fill="#FFEB3B" d="M7725.237,882.884L0,8608.121c0,364.189,297.973,662.163,662.163,662.163h110.361l7614.876-7614.876
		v-110.36C8387.399,1180.858,8089.427,882.884,7725.237,882.884z"/>
	<path opacity="0.5" fill="#FFCD40" enable-background="new    " d="M7725.237,882.884L0,8608.121
		c0,364.189,297.973,662.163,662.163,662.163h110.361l7614.876-7614.876v-110.36
		C8387.399,1180.858,8089.427,882.884,7725.237,882.884z"/>
	<path fill="#FFFFFF" fill-opacity="0.2" d="M7725.237,882.884H662.163C297.973,882.884,0,1180.858,0,1545.047v55.18
		c0-364.19,297.973-662.163,662.163-662.163h7063.074c364.19,0,662.163,297.973,662.163,662.163v-55.18
		C8387.399,1180.858,8089.427,882.884,7725.237,882.884z"/>
	<path fill="#263238" fill-opacity="0.1" d="M7725.237,9215.104H662.163C297.973,9215.104,0,8917.131,0,8552.94v55.181
		c0,364.189,297.973,662.163,662.163,662.163h7063.074c364.19,0,662.163-297.974,662.163-662.163v-55.181
		C8387.399,8917.131,8089.427,9215.104,7725.237,9215.104z"/>
	<path fill="#EEEEEE" d="M1876.129,2538.292v474.55h651.127c-55.18,275.901-297.973,485.586-651.127,485.586
		c-397.298,0-717.343-331.082-717.343-728.379s320.045-728.38,717.343-728.38c176.577,0,342.118,66.216,463.514,176.577
		l353.154-342.118c-209.685-209.685-485.586-331.082-816.668-331.082c-673.199,0-1213.966,540.767-1213.966,1213.966
		s540.767,1213.966,1213.966,1213.966c695.271,0,1169.822-496.622,1169.822-1191.894c0-88.288-11.036-165.541-22.072-242.793
		H1876.129z"/>
	<g>
		<path fill="#DB4437" d="M7063.074,0c-1213.966,0-2207.21,982.209-2207.21,2207.21c0,1666.444,1854.057,2527.256,2074.777,4900.007
			c11.036,66.216,66.216,121.396,132.433,121.396c66.216,0,121.396-55.18,132.432-121.396
			c220.721-2372.751,2074.778-3233.563,2074.778-4900.007C9270.284,982.209,8288.075,0,7063.074,0z"/>
		<circle fill="#7B231E" cx="7063.074" cy="2207.21" r="772.524"/>
		<path fill="#FFFFFF" fill-opacity="0.2" d="M7063.074,55.18c1202.93,0,2185.138,971.173,2207.21,2174.103
			c0-11.036,0-11.036,0-22.072C9270.284,982.209,8288.075,0,7063.074,0s-2207.21,982.209-2207.21,2207.21
			c0,11.036,0,11.036,0,22.072C4877.935,1026.353,5849.108,55.18,7063.074,55.18z"/>
		<path fill="#3E2723" fill-opacity="0.2" d="M7195.506,7052.038c-11.036,66.216-66.216,121.396-132.432,121.396
			c-66.216,0-121.396-55.18-132.433-121.396C6709.92,4690.322,4866.899,3818.474,4855.863,2174.102c0,11.036,0,22.072,0,33.108
			c0,1666.444,1854.057,2527.256,2074.777,4900.007c11.036,66.216,66.216,121.396,132.433,121.396
			c66.216,0,121.396-55.18,132.432-121.396c220.721-2372.751,2074.778-3233.563,2074.778-4900.007c0-11.036,0-22.072,0-33.108
			C9248.212,3818.474,7416.227,4690.322,7195.506,7052.038z"/>
	</g>
	
		<radialGradient id="SVGID_1_" cx="230.1017" cy="7220.6421" r="11305.9941" gradientTransform="matrix(1 0 0 -1 0 8286.2842)" gradientUnits="userSpaceOnUse">
		<stop  offset="0" style="stop-color:#FFFFFF;stop-opacity:0.1"/>
		<stop  offset="1" style="stop-color:#FFFFFF;stop-opacity:0"/>
	</radialGradient>
	<path fill="url(#SVGID_1_)" d="M7063.074,0C6345.73,0,5705.639,342.118,5297.305,882.884H662.163
		C297.973,882.884,0,1180.858,0,1545.047v7063.074c0,364.189,297.973,662.163,662.163,662.163h7063.074
		c364.19,0,662.163-297.974,662.163-662.163V4281.988c463.515-673.199,882.885-1291.218,882.885-2074.778
		C9270.284,993.245,8288.075,0,7063.074,0z"/>
</g>
</svg>
