<svg id="a87cecbf-beed-4123-ac7e-e85f4f61a4bc" data-name="Layer 1" xmlns="http://www.w3.org/2000/svg" viewBox="0 0 106.7961 106.7715">
  <title>waze</title>
  <path d="M106.69,53.0255c.0035,9.84.12,19.6829-.04,29.5207A24.3539,24.3539,0,0,1,100.91,98.45c-4.7781,5.5732-11.1511,8.0214-18.2235,8.0946-19.4761.2015-38.9632.4058-58.4312-.0369C9.409,106.17.4014,96.6773.1746,82.0674-.12,63.1009.0313,44.1264.1028,25.1558.1466,13.5357,6.04,4.6412,15.7184,1.6988A33.3424,33.3424,0,0,1,25.51,0C44.4807.0523,63.4521-.042,82.4223.0754a25.5173,25.5173,0,0,1,13.21,3.6871c7.5011,4.5149,10.6362,11.5191,10.9629,19.7452C106.9851,33.3327,106.6869,43.185,106.69,53.0255ZM57.6829,80.5c1.3326,5.8981,4.9155,8.6354,10.174,7.9869,4.4382-.5474,7.3393-4.3578,7.0052-9.7091-.1266-2.0288,1.0051-2.5481,2.3352-3.3571,14.1943-8.6331,19.2642-23.4575,14.8834-37.19C85.9864,19.1254,63.1745,9.6067,44.0888,17.02,32.7712,21.4154,24.8024,28.966,22.2721,41.3891c-.849,4.1682-.3353,8.4444-1.3833,12.58-.7269,2.8685-2.1486,4.5031-5.3621,4.7609-4.4613.3579-5.8371,3.9741-3.0781,7.5772a30.8007,30.8007,0,0,0,12.96,9.751c2.08.8587,2.7477,1.83,2.6734,4.1506-.2024,6.33,6.2766,10.2157,11.96,7.5946,3.264-1.5053,4.5278-4.2672,5.462-7.3041Z" style="fill: #93c3d2"/>
  <path d="M57.6829,80.5H45.504c-.9342,3.0369-2.198,5.7988-5.462,7.3041-5.6837,2.6211-12.1627-1.2646-11.96-7.5946.0743-2.3205-.593-3.2919-2.6734-4.1506a30.8007,30.8007,0,0,1-12.96-9.751c-2.759-3.6031-1.3832-7.2193,3.0781-7.5772,3.2135-.2578,4.6352-1.8924,5.3621-4.7609,1.048-4.1359.5343-8.4121,1.3833-12.58C24.8024,28.966,32.7712,21.4154,44.0888,17.02c19.0857-7.413,41.8976,2.1057,47.9919,21.21,4.3808,13.7329-.6891,28.5573-14.8834,37.19-1.33.809-2.4618,1.3283-2.3352,3.3571.3341,5.3513-2.567,9.1617-7.0052,9.7091C62.5984,89.135,59.0155,86.3977,57.6829,80.5ZM15.72,63.3762A29.885,29.885,0,0,0,27.9566,72.504a4.61,4.61,0,0,0,4.5514-.15c3.2048-1.8056,6.9476-1.8313,9.2605.8929,2.5363,2.9873,5.3671,2.9312,8.5607,2.8576,2.0281-.0467,4.06-.0634,6.0865.011a3.4074,3.4074,0,0,0,3.09-1.3644c3.1729-3.7974,6.7305-4.5094,11.0969-2.3673a2.8324,2.8324,0,0,0,2.7932.1895A27.7515,27.7515,0,0,0,87.1288,37.1865C82.0026,24.9217,66.6209,16.7288,52.7333,19.1576,41.3268,21.1524,32.2523,26.6687,27.7182,37.92c-1.8071,4.4844-1.5,9.3688-2.0261,14.0847C24.9171,58.9555,22.5517,61.8137,15.72,63.3762Z" style="fill: #3d4041"/>
  <path d="M15.72,63.3762c6.8315-1.5625,9.1969-4.4207,9.9719-11.3711.5258-4.7159.219-9.6,2.0261-14.0847,4.5341-11.2517,13.6086-16.768,25.0151-18.7628,13.8876-2.4288,29.2693,5.7641,34.3955,18.0289A27.7515,27.7515,0,0,1,73.3961,72.573a2.8324,2.8324,0,0,1-2.7932-.1895c-4.3664-2.1421-7.924-1.43-11.0969,2.3673a3.4074,3.4074,0,0,1-3.09,1.3644c-2.0264-.0744-4.0584-.0577-6.0865-.011-3.1936.0736-6.0244.13-8.5607-2.8576-2.3129-2.7242-6.0557-2.6985-9.26-.8929a4.61,4.61,0,0,1-4.5514.15A29.885,29.885,0,0,1,15.72,63.3762Zm41.44-.75c6.8146.0873,13.4105-3.9881,15.14-9.3636.4491-1.3963.8569-2.9142-.89-3.6478-1.6972-.7128-2.5.4277-3.1657,1.8665-2.1756,4.7032-5.9676,6.6529-11.0822,6.5226-4.741-.1208-8.1108-2.16-9.81-6.599-.6705-1.7515-1.8628-2.6525-3.4109-1.9532-1.39.6276-1.2647,2.1566-.7684,3.6546C44.9617,58.5041,50.7959,62.5444,57.16,62.6259Zm8.9831-18.1838c3.6212-.0217,5.4665-1.7112,5.33-4.3382a3.8155,3.8155,0,0,0-4.022-3.982,4.01,4.01,0,0,0-4.1977,4.1618C63.4668,42.3892,64.1876,44.3114,66.1429,44.4421ZM52.035,40.322a4.1837,4.1837,0,0,0-4.166-4.251c-2.0392.0443-4.485,2.3189-4.5068,4.1914-.0234,2.0127,2.5126,4.2723,4.6927,4.1811A4.0867,4.0867,0,0,0,52.035,40.322Z" style="fill: #fcfefd"/>
  <path d="M57.16,62.6259c-6.3639-.0815-12.1981-4.1218-13.9867-9.52-.4963-1.498-.6212-3.027.7684-3.6546,1.5481-.6993,2.74.2017,3.4109,1.9532,1.699,4.4386,5.0688,6.4782,9.81,6.599,5.1146.13,8.9066-1.8194,11.0822-6.5226.6656-1.4388,1.4685-2.5793,3.1657-1.8665,1.7465.7336,1.3387,2.2515.89,3.6478C70.57,58.6378,63.9744,62.7132,57.16,62.6259Z" style="fill: #3d4041"/>
  <path d="M66.1429,44.4421c-1.9553-.1307-2.6761-2.0529-2.89-4.1584a4.01,4.01,0,0,1,4.1977-4.1618,3.8155,3.8155,0,0,1,4.022,3.982C71.6094,42.7309,69.7641,44.42,66.1429,44.4421Z" style="fill: #3d4041"/>
  <path d="M52.035,40.322a4.0867,4.0867,0,0,1-3.98,4.1215c-2.18.0912-4.7161-2.1684-4.6927-4.1811C43.384,38.39,45.83,36.1153,47.869,36.071A4.1837,4.1837,0,0,1,52.035,40.322Z" style="fill: #3d4041"/>
</svg>
